<svg version="1.1" id="Layer_1" xmlns="http://www.w3.org/2000/svg" xmlns:xlink="http://www.w3.org/1999/xlink" x="0px" y="0px"
	 width="100%" viewBox="0 0 203 169" enable-background="new 0 0 203 169" xml:space="preserve">
<path fill="#000000" opacity="1.000000" stroke="none" 
	d="
M204.000000,55.000000 
	C204.000000,93.666664 204.000000,131.833328 204.000000,170.000000 
	C136.333328,170.000000 68.666664,170.000000 1.000000,170.000000 
	C1.000000,113.666664 1.000000,57.333332 1.000000,1.000000 
	C68.666664,1.000000 136.333328,1.000000 204.000000,1.000000 
	C204.000000,18.833334 204.000000,36.666668 204.000000,55.000000 
M187.000000,128.500000 
	C187.000000,88.406525 187.000000,48.313046 187.000000,8.285429 
	C131.026001,8.285429 75.623734,8.285429 20.285622,8.285429 
	C20.285622,59.307255 20.285622,110.043144 20.285622,160.714569 
	C75.973984,160.714569 131.376251,160.714569 187.000000,160.714569 
	C187.000000,150.120438 187.000000,139.810211 187.000000,128.500000 
z"/>
<path fill="#FFFFFF" opacity="1.000000" stroke="none" 
	d="
M187.000000,129.000000 
	C187.000000,139.810211 187.000000,150.120438 187.000000,160.714569 
	C131.376251,160.714569 75.973984,160.714569 20.285622,160.714569 
	C20.285622,110.043144 20.285622,59.307255 20.285622,8.285429 
	C75.623734,8.285429 131.026001,8.285429 187.000000,8.285429 
	C187.000000,48.313046 187.000000,88.406525 187.000000,129.000000 
M25.000000,27.507906 
	C25.000000,70.267036 25.000000,113.026169 25.000000,155.711761 
	C76.979317,155.711761 128.381821,155.711761 179.711304,155.711761 
	C179.711304,108.353523 179.711304,61.284092 179.711304,14.288784 
	C128.019592,14.288784 76.617096,14.288784 25.000000,14.288784 
	C25.000000,18.553001 25.000000,22.531996 25.000000,27.507906 
z"/>
<path fill="#000000" opacity="1.000000" stroke="none" 
	d="
M25.000000,27.009449 
	C25.000000,22.531996 25.000000,18.553001 25.000000,14.288784 
	C76.617096,14.288784 128.019592,14.288784 179.711304,14.288784 
	C179.711304,61.284092 179.711304,108.353523 179.711304,155.711761 
	C128.381821,155.711761 76.979317,155.711761 25.000000,155.711761 
	C25.000000,113.026169 25.000000,70.267036 25.000000,27.009449 
M59.056877,91.746384 
	C68.240295,91.746384 77.423714,91.746384 87.000038,91.746384 
	C87.000038,102.521568 86.917999,113.641762 87.028053,124.760056 
	C87.105095,132.543869 93.256294,139.968628 100.435852,140.957138 
	C107.545670,141.936066 116.282265,138.447296 117.745529,129.549149 
	C119.328255,119.924522 118.947906,109.977089 119.416290,100.324448 
	C114.615646,100.324448 110.875290,100.324448 106.999954,100.324448 
	C106.999954,108.966858 106.899193,117.287262 107.051781,125.603020 
	C107.109207,128.732681 106.247116,130.036972 102.857185,130.112564 
	C99.439400,130.188812 98.017822,128.880325 98.011032,125.702766 
	C97.985870,113.922325 98.001015,102.141800 98.001015,89.967361 
	C105.160286,89.967361 111.907455,89.967361 118.999306,89.967361 
	C118.999306,74.116783 119.186455,58.659203 118.916290,43.209625 
	C118.790916,36.040749 109.555878,27.582579 102.459412,28.296768 
	C94.874588,29.060104 86.185356,36.401859 86.784073,44.410587 
	C87.634422,55.785381 87.000000,67.271172 87.000000,78.750420 
	C77.431610,78.750420 68.361122,78.750420 59.000031,78.750420 
	C59.000031,67.371788 58.769196,56.231262 59.205093,45.116879 
	C59.287075,43.026592 62.028900,41.040619 63.543335,39.006512 
	C65.027802,40.942814 67.273232,42.690327 67.811829,44.861290 
	C68.551735,47.843723 67.999550,51.146870 67.999855,54.312595 
	C68.000374,59.763351 68.000000,65.214104 68.000000,70.779449 
	C71.846390,70.779449 75.249931,70.779449 78.999992,70.779449 
	C78.999992,61.604073 79.044746,52.644424 78.986534,43.685444 
	C78.935432,35.822014 70.998062,27.421831 63.428650,28.319736 
	C53.820690,29.459463 47.796745,35.083038 47.949814,43.822453 
	C48.153233,55.436749 48.000000,67.057289 48.000000,79.045914 
	C45.503471,79.045914 43.423183,79.045914 41.214550,79.045914 
	C41.214550,83.170868 41.214550,86.917686 41.214550,91.038628 
	C43.497292,91.038628 45.572353,91.038628 48.030464,91.038628 
	C48.030464,107.820999 48.030464,124.232117 48.030464,140.787506 
	C51.829983,140.787506 55.233379,140.787506 59.003933,140.787506 
	C59.003933,124.623154 59.003933,108.668510 59.056877,91.746384 
M148.000000,105.601418 
	C147.999969,112.097610 147.887299,118.596603 148.048508,125.088791 
	C148.126389,128.225296 146.808136,129.098892 143.878906,129.056183 
	C139.827606,128.997086 138.956177,126.800194 138.965012,123.281036 
	C139.029861,97.462929 139.052551,71.644341 138.937866,45.826580 
	C138.922394,42.342793 140.253601,39.312519 143.326706,39.264057 
	C146.765869,39.209820 148.127838,42.335255 148.053360,45.972298 
	C147.884094,54.236004 148.000000,62.505547 148.000000,70.726616 
	C151.954132,70.726616 155.359436,70.726616 159.000000,70.726616 
	C159.000000,61.985813 159.002731,53.516068 158.999237,45.046322 
	C158.995590,36.217579 152.010803,28.994789 143.488220,29.000015 
	C135.008209,29.005213 128.017563,36.211792 128.009201,45.080070 
	C127.983803,72.064308 128.184265,99.050880 127.847557,126.030945 
	C127.778587,131.557709 134.773163,140.313141 141.085342,140.984482 
	C148.926147,141.818451 158.240295,136.024109 158.800171,128.851593 
	C159.543854,119.323860 158.983597,109.694344 158.983597,100.150223 
	C155.057953,100.150223 151.770218,100.150223 148.000000,100.150223 
	C148.000000,101.737610 148.000000,103.181694 148.000000,105.601418 
z"/>
<path fill="#FFFFFF" opacity="1.000000" stroke="none" 
	d="
M59.030403,92.230125 
	C59.003933,108.668510 59.003933,124.623154 59.003933,140.787506 
	C55.233379,140.787506 51.829983,140.787506 48.030464,140.787506 
	C48.030464,124.232117 48.030464,107.820999 48.030464,91.038628 
	C45.572353,91.038628 43.497292,91.038628 41.214550,91.038628 
	C41.214550,86.917686 41.214550,83.170868 41.214550,79.045914 
	C43.423183,79.045914 45.503471,79.045914 48.000000,79.045914 
	C48.000000,67.057289 48.153233,55.436749 47.949814,43.822453 
	C47.796745,35.083038 53.820690,29.459463 63.428650,28.319736 
	C70.998062,27.421831 78.935432,35.822014 78.986534,43.685444 
	C79.044746,52.644424 78.999992,61.604073 78.999992,70.779449 
	C75.249931,70.779449 71.846390,70.779449 68.000000,70.779449 
	C68.000000,65.214104 68.000374,59.763351 67.999855,54.312595 
	C67.999550,51.146870 68.551735,47.843723 67.811829,44.861290 
	C67.273232,42.690327 65.027802,40.942814 63.543335,39.006512 
	C62.028900,41.040619 59.287075,43.026592 59.205093,45.116879 
	C58.769196,56.231262 59.000031,67.371788 59.000031,78.750420 
	C68.361122,78.750420 77.431610,78.750420 87.000000,78.750420 
	C87.000000,67.271172 87.634422,55.785381 86.784073,44.410587 
	C86.185356,36.401859 94.874588,29.060104 102.459412,28.296768 
	C109.555878,27.582579 118.790916,36.040749 118.916290,43.209625 
	C119.186455,58.659203 118.999306,74.116783 118.999306,89.967361 
	C111.907455,89.967361 105.160286,89.967361 98.001015,89.967361 
	C98.001015,102.141800 97.985870,113.922325 98.011032,125.702766 
	C98.017822,128.880325 99.439400,130.188812 102.857185,130.112564 
	C106.247116,130.036972 107.109207,128.732681 107.051781,125.603020 
	C106.899193,117.287262 106.999954,108.966858 106.999954,100.324448 
	C110.875290,100.324448 114.615646,100.324448 119.416290,100.324448 
	C118.947906,109.977089 119.328255,119.924522 117.745529,129.549149 
	C116.282265,138.447296 107.545670,141.936066 100.435852,140.957138 
	C93.256294,139.968628 87.105095,132.543869 87.028053,124.760056 
	C86.917999,113.641762 87.000038,102.521568 87.000038,91.746384 
	C77.423714,91.746384 68.240295,91.746384 59.030403,92.230125 
M98.000000,62.498970 
	C98.000000,67.931618 98.000000,73.364273 98.000000,78.721458 
	C101.298691,78.721458 104.035797,78.721458 107.000000,78.721458 
	C107.000000,67.646927 106.947922,56.848835 107.031021,46.051785 
	C107.056702,42.715267 106.623886,39.212944 102.755775,39.203716 
	C99.021950,39.194813 98.079559,42.726315 98.023399,46.016823 
	C97.935341,51.176449 98.000015,56.338680 98.000000,62.498970 
z"/>
<path fill="#FFFFFF" opacity="1.000000" stroke="none" 
	d="
M148.000000,105.113602 
	C148.000000,103.181694 148.000000,101.737610 148.000000,100.150223 
	C151.770218,100.150223 155.057953,100.150223 158.983597,100.150223 
	C158.983597,109.694344 159.543854,119.323860 158.800171,128.851593 
	C158.240295,136.024109 148.926147,141.818451 141.085342,140.984482 
	C134.773163,140.313141 127.778587,131.557709 127.847557,126.030945 
	C128.184265,99.050880 127.983803,72.064308 128.009201,45.080070 
	C128.017563,36.211792 135.008209,29.005213 143.488220,29.000015 
	C152.010803,28.994789 158.995590,36.217579 158.999237,45.046322 
	C159.002731,53.516068 159.000000,61.985813 159.000000,70.726616 
	C155.359436,70.726616 151.954132,70.726616 148.000000,70.726616 
	C148.000000,62.505547 147.884094,54.236004 148.053360,45.972298 
	C148.127838,42.335255 146.765869,39.209820 143.326706,39.264057 
	C140.253601,39.312519 138.922394,42.342793 138.937866,45.826580 
	C139.052551,71.644341 139.029861,97.462929 138.965012,123.281036 
	C138.956177,126.800194 139.827606,128.997086 143.878906,129.056183 
	C146.808136,129.098892 148.126389,128.225296 148.048508,125.088791 
	C147.887299,118.596603 147.999969,112.097610 148.000000,105.113602 
z"/>
<path fill="#000000" opacity="1.000000" stroke="none" 
	d="
M98.000000,61.999390 
	C98.000015,56.338680 97.935341,51.176449 98.023399,46.016823 
	C98.079559,42.726315 99.021950,39.194813 102.755775,39.203716 
	C106.623886,39.212944 107.056702,42.715267 107.031021,46.051785 
	C106.947922,56.848835 107.000000,67.646927 107.000000,78.721458 
	C104.035797,78.721458 101.298691,78.721458 98.000000,78.721458 
	C98.000000,73.364273 98.000000,67.931618 98.000000,61.999390 
z"/>
</svg>